<svg xmlns="http://www.w3.org/2000/svg" xmlns:xlink="http://www.w3.org/1999/xlink" width="500" zoomAndPan="magnify" viewBox="0 0 375 374.999991" height="500" preserveAspectRatio="xMidYMid meet" version="1.0"><defs><g/></defs><g fill="#6c00ff" fill-opacity="1"><g transform="translate(141.129691, 268.711386)"><g><path d="M 1.449219 -4.050781 L 1.449219 0 L 128.519531 0 L 132.859375 -40.523438 L 129.964844 -40.8125 C 124.753906 -24.894531 118.675781 -19.394531 90.019531 -19.394531 L 24.023438 -19.394531 C 59.339844 -50.65625 126.78125 -103.335938 126.492188 -158.042969 C 126.203125 -187.566406 105.070312 -204.644531 79.601562 -204.644531 C 53.839844 -204.644531 34.734375 -191.328125 18.816406 -172.226562 L 21.128906 -169.621094 C 33.289062 -183.226562 48.628906 -189.59375 63.679688 -189.59375 C 85.96875 -189.59375 100.730469 -174.832031 100.730469 -150.804688 C 100.730469 -96.679688 41.390625 -42.550781 1.449219 -4.050781 Z M 1.449219 -4.050781 "/></g></g></g><g fill="#3c79f5" fill-opacity="1"><g transform="translate(92.609888, 261.750628)"><g><path d="M 50 -121.34375 C 63.3125 -121.34375 73.921875 -118.3125 81.828125 -112.25 C 89.734375 -106.195312 93.6875 -97.96875 93.6875 -87.5625 C 93.6875 -78.46875 90.390625 -69.375 83.796875 -60.28125 C 81.421875 -56.988281 79.34375 -54.1875 77.5625 -51.875 C 75.789062 -49.570312 73.222656 -46.773438 69.859375 -43.484375 C 66.503906 -40.191406 63.90625 -37.65625 62.0625 -35.875 C 60.21875 -34.09375 57.382812 -31.617188 53.5625 -28.453125 C 49.738281 -25.296875 47.101562 -23.15625 45.65625 -22.03125 C 44.207031 -20.914062 41.601562 -18.90625 37.84375 -16 C 34.09375 -13.101562 31.953125 -11.457031 31.421875 -11.0625 L 77.671875 -11.0625 C 83.335938 -11.0625 87.71875 -12.082031 90.8125 -14.125 C 93.90625 -16.164062 97.300781 -20.019531 101 -25.6875 L 102.96875 -25.6875 L 93.484375 0 L 11.46875 0 L 11.46875 -1.78125 C 56.394531 -38.675781 78.859375 -67.132812 78.859375 -87.15625 C 78.859375 -96.25 76.320312 -103.332031 71.25 -108.40625 C 66.175781 -113.476562 59.359375 -116.015625 50.796875 -116.015625 C 41.046875 -116.015625 33.367188 -113.738281 27.765625 -109.1875 C 22.171875 -104.644531 19.503906 -98.222656 19.765625 -89.921875 L 17.78125 -89.921875 L 14.421875 -110.078125 C 18.117188 -113.378906 23.359375 -116.082031 30.140625 -118.1875 C 36.921875 -120.289062 43.539062 -121.34375 50 -121.34375 Z M 50 -121.34375 "/></g></g></g><g fill="#2dcddf" fill-opacity="1"><g transform="translate(87.703435, 292.874777)"><g><path d="M 7.46875 -5.1875 L 7.46875 0 L 4.828125 0 L 4.828125 -5.1875 L 0.3125 -12.65625 L 3.09375 -12.65625 L 6.125 -7.296875 L 9.203125 -12.65625 L 11.96875 -12.65625 Z M 7.46875 -5.1875 "/></g></g></g><g fill="#2dcddf" fill-opacity="1"><g transform="translate(102.120441, 292.874777)"><g><path d="M 1.234375 0 L 1.234375 -12.65625 L 11.1875 -12.65625 L 11.1875 -10.609375 L 3.875 -10.609375 L 3.875 -7.421875 L 10.625 -7.421875 L 10.625 -5.375 L 3.875 -5.375 L 3.875 -2.046875 L 11.546875 -2.046875 L 11.546875 0 Z M 1.234375 0 "/></g></g></g><g fill="#2dcddf" fill-opacity="1"><g transform="translate(116.537446, 292.874777)"><g><path d="M 10.171875 0 L 9.046875 -3.234375 L 4.234375 -3.234375 L 3.109375 0 L 0.453125 0 L 5.078125 -12.65625 L 8.203125 -12.65625 L 12.796875 0 Z M 6.640625 -10.703125 L 6.578125 -10.5 C 6.523438 -10.289062 6.453125 -10.046875 6.359375 -9.765625 C 6.273438 -9.492188 5.765625 -7.976562 4.828125 -5.21875 L 8.453125 -5.21875 L 7.203125 -8.859375 L 6.828125 -10.078125 Z M 6.640625 -10.703125 "/></g></g></g><g fill="#2dcddf" fill-opacity="1"><g transform="translate(131.968959, 292.874777)"><g><path d="M 9.921875 0 L 6.984375 -4.796875 L 3.875 -4.796875 L 3.875 0 L 1.234375 0 L 1.234375 -12.65625 L 7.546875 -12.65625 C 9.054688 -12.65625 10.222656 -12.328125 11.046875 -11.671875 C 11.867188 -11.023438 12.28125 -10.09375 12.28125 -8.875 C 12.28125 -7.988281 12.023438 -7.222656 11.515625 -6.578125 C 11.015625 -5.941406 10.335938 -5.519531 9.484375 -5.3125 L 12.90625 0 Z M 9.609375 -8.765625 C 9.609375 -9.984375 8.832031 -10.59375 7.28125 -10.59375 L 3.875 -10.59375 L 3.875 -6.859375 L 7.34375 -6.859375 C 8.082031 -6.859375 8.644531 -7.023438 9.03125 -7.359375 C 9.414062 -7.691406 9.609375 -8.160156 9.609375 -8.765625 Z M 9.609375 -8.765625 "/></g></g></g><g fill="#2dcddf" fill-opacity="1"><g transform="translate(147.400472, 292.874777)"><g><path d="M 11.546875 -3.640625 C 11.546875 -2.398438 11.085938 -1.453125 10.171875 -0.796875 C 9.253906 -0.148438 7.90625 0.171875 6.125 0.171875 C 4.5 0.171875 3.222656 -0.113281 2.296875 -0.6875 C 1.378906 -1.257812 0.789062 -2.128906 0.53125 -3.296875 L 3.09375 -3.71875 C 3.257812 -3.050781 3.59375 -2.566406 4.09375 -2.265625 C 4.601562 -1.960938 5.304688 -1.8125 6.203125 -1.8125 C 8.046875 -1.8125 8.96875 -2.375 8.96875 -3.5 C 8.96875 -3.851562 8.859375 -4.144531 8.640625 -4.375 C 8.429688 -4.613281 8.132812 -4.8125 7.75 -4.96875 C 7.363281 -5.125 6.625 -5.3125 5.53125 -5.53125 C 4.582031 -5.75 3.921875 -5.925781 3.546875 -6.0625 C 3.179688 -6.195312 2.847656 -6.351562 2.546875 -6.53125 C 2.242188 -6.71875 1.988281 -6.941406 1.78125 -7.203125 C 1.570312 -7.460938 1.410156 -7.765625 1.296875 -8.109375 C 1.179688 -8.453125 1.125 -8.847656 1.125 -9.296875 C 1.125 -10.441406 1.550781 -11.316406 2.40625 -11.921875 C 3.269531 -12.535156 4.519531 -12.84375 6.15625 -12.84375 C 7.726562 -12.84375 8.90625 -12.597656 9.6875 -12.109375 C 10.476562 -11.617188 10.988281 -10.804688 11.21875 -9.671875 L 8.640625 -9.328125 C 8.515625 -9.867188 8.25 -10.273438 7.84375 -10.546875 C 7.4375 -10.828125 6.859375 -10.96875 6.109375 -10.96875 C 4.503906 -10.96875 3.703125 -10.460938 3.703125 -9.453125 C 3.703125 -9.128906 3.785156 -8.859375 3.953125 -8.640625 C 4.128906 -8.429688 4.382812 -8.253906 4.71875 -8.109375 C 5.050781 -7.960938 5.726562 -7.78125 6.75 -7.5625 C 7.96875 -7.300781 8.835938 -7.0625 9.359375 -6.84375 C 9.878906 -6.625 10.289062 -6.367188 10.59375 -6.078125 C 10.90625 -5.785156 11.140625 -5.4375 11.296875 -5.03125 C 11.460938 -4.632812 11.546875 -4.171875 11.546875 -3.640625 Z M 11.546875 -3.640625 "/></g></g></g><g fill="#2dcddf" fill-opacity="1"><g transform="translate(161.817475, 292.874777)"><g/></g></g><g fill="#2dcddf" fill-opacity="1"><g transform="translate(169.079111, 292.874777)"><g><path d="M 13.53125 -6.390625 C 13.53125 -5.066406 13.269531 -3.90625 12.75 -2.90625 C 12.226562 -1.90625 11.484375 -1.140625 10.515625 -0.609375 C 9.546875 -0.0859375 8.414062 0.171875 7.125 0.171875 C 5.132812 0.171875 3.570312 -0.410156 2.4375 -1.578125 C 1.3125 -2.742188 0.75 -4.347656 0.75 -6.390625 C 0.75 -8.410156 1.3125 -9.988281 2.4375 -11.125 C 3.5625 -12.269531 5.128906 -12.84375 7.140625 -12.84375 C 9.140625 -12.84375 10.703125 -12.265625 11.828125 -11.109375 C 12.960938 -9.960938 13.53125 -8.390625 13.53125 -6.390625 Z M 10.828125 -6.390625 C 10.828125 -7.753906 10.503906 -8.820312 9.859375 -9.59375 C 9.210938 -10.363281 8.304688 -10.75 7.140625 -10.75 C 5.953125 -10.75 5.035156 -10.363281 4.390625 -9.59375 C 3.742188 -8.832031 3.421875 -7.765625 3.421875 -6.390625 C 3.421875 -4.992188 3.75 -3.894531 4.40625 -3.09375 C 5.070312 -2.300781 5.976562 -1.90625 7.125 -1.90625 C 8.3125 -1.90625 9.222656 -2.289062 9.859375 -3.0625 C 10.503906 -3.84375 10.828125 -4.953125 10.828125 -6.390625 Z M 10.828125 -6.390625 "/></g></g></g><g fill="#2dcddf" fill-opacity="1"><g transform="translate(185.534106, 292.874777)"><g><path d="M 3.875 -10.609375 L 3.875 -6.6875 L 10.359375 -6.6875 L 10.359375 -4.640625 L 3.875 -4.640625 L 3.875 0 L 1.234375 0 L 1.234375 -12.65625 L 10.5625 -12.65625 L 10.5625 -10.609375 Z M 3.875 -10.609375 "/></g></g></g><g fill="#2dcddf" fill-opacity="1"><g transform="translate(103.125309, 313.874775)"><g><path d="M 11.546875 -3.640625 C 11.546875 -2.398438 11.085938 -1.453125 10.171875 -0.796875 C 9.253906 -0.148438 7.90625 0.171875 6.125 0.171875 C 4.5 0.171875 3.222656 -0.113281 2.296875 -0.6875 C 1.378906 -1.257812 0.789062 -2.128906 0.53125 -3.296875 L 3.09375 -3.71875 C 3.257812 -3.050781 3.59375 -2.566406 4.09375 -2.265625 C 4.601562 -1.960938 5.304688 -1.8125 6.203125 -1.8125 C 8.046875 -1.8125 8.96875 -2.375 8.96875 -3.5 C 8.96875 -3.851562 8.859375 -4.144531 8.640625 -4.375 C 8.429688 -4.613281 8.132812 -4.8125 7.75 -4.96875 C 7.363281 -5.125 6.625 -5.3125 5.53125 -5.53125 C 4.582031 -5.75 3.921875 -5.925781 3.546875 -6.0625 C 3.179688 -6.195312 2.847656 -6.351562 2.546875 -6.53125 C 2.242188 -6.71875 1.988281 -6.941406 1.78125 -7.203125 C 1.570312 -7.460938 1.410156 -7.765625 1.296875 -8.109375 C 1.179688 -8.453125 1.125 -8.847656 1.125 -9.296875 C 1.125 -10.441406 1.550781 -11.316406 2.40625 -11.921875 C 3.269531 -12.535156 4.519531 -12.84375 6.15625 -12.84375 C 7.726562 -12.84375 8.90625 -12.597656 9.6875 -12.109375 C 10.476562 -11.617188 10.988281 -10.804688 11.21875 -9.671875 L 8.640625 -9.328125 C 8.515625 -9.867188 8.25 -10.273438 7.84375 -10.546875 C 7.4375 -10.828125 6.859375 -10.96875 6.109375 -10.96875 C 4.503906 -10.96875 3.703125 -10.460938 3.703125 -9.453125 C 3.703125 -9.128906 3.785156 -8.859375 3.953125 -8.640625 C 4.128906 -8.429688 4.382812 -8.253906 4.71875 -8.109375 C 5.050781 -7.960938 5.726562 -7.78125 6.75 -7.5625 C 7.96875 -7.300781 8.835938 -7.0625 9.359375 -6.84375 C 9.878906 -6.625 10.289062 -6.367188 10.59375 -6.078125 C 10.90625 -5.785156 11.140625 -5.4375 11.296875 -5.03125 C 11.460938 -4.632812 11.546875 -4.171875 11.546875 -3.640625 Z M 11.546875 -3.640625 "/></g></g></g><g fill="#2dcddf" fill-opacity="1"><g transform="translate(117.542315, 313.874775)"><g><path d="M 1.234375 0 L 1.234375 -12.65625 L 11.1875 -12.65625 L 11.1875 -10.609375 L 3.875 -10.609375 L 3.875 -7.421875 L 10.625 -7.421875 L 10.625 -5.375 L 3.875 -5.375 L 3.875 -2.046875 L 11.546875 -2.046875 L 11.546875 0 Z M 1.234375 0 "/></g></g></g><g fill="#2dcddf" fill-opacity="1"><g transform="translate(131.95932, 313.874775)"><g><path d="M 9.921875 0 L 6.984375 -4.796875 L 3.875 -4.796875 L 3.875 0 L 1.234375 0 L 1.234375 -12.65625 L 7.546875 -12.65625 C 9.054688 -12.65625 10.222656 -12.328125 11.046875 -11.671875 C 11.867188 -11.023438 12.28125 -10.09375 12.28125 -8.875 C 12.28125 -7.988281 12.023438 -7.222656 11.515625 -6.578125 C 11.015625 -5.941406 10.335938 -5.519531 9.484375 -5.3125 L 12.90625 0 Z M 9.609375 -8.765625 C 9.609375 -9.984375 8.832031 -10.59375 7.28125 -10.59375 L 3.875 -10.59375 L 3.875 -6.859375 L 7.34375 -6.859375 C 8.082031 -6.859375 8.644531 -7.023438 9.03125 -7.359375 C 9.414062 -7.691406 9.609375 -8.160156 9.609375 -8.765625 Z M 9.609375 -8.765625 "/></g></g></g><g fill="#2dcddf" fill-opacity="1"><g transform="translate(147.390833, 313.874775)"><g><path d="M 7.484375 0 L 4.796875 0 L 0.125 -12.65625 L 2.890625 -12.65625 L 5.5 -4.53125 C 5.65625 -4 5.875 -3.203125 6.15625 -2.140625 L 6.34375 -2.90625 L 6.8125 -4.53125 L 9.40625 -12.65625 L 12.140625 -12.65625 Z M 7.484375 0 "/></g></g></g><g fill="#2dcddf" fill-opacity="1"><g transform="translate(161.807838, 313.874775)"><g><path d="M 1.234375 0 L 1.234375 -12.65625 L 3.875 -12.65625 L 3.875 0 Z M 1.234375 0 "/></g></g></g><g fill="#2dcddf" fill-opacity="1"><g transform="translate(169.069474, 313.874775)"><g><path d="M 7.140625 -1.90625 C 8.734375 -1.90625 9.84375 -2.707031 10.46875 -4.3125 L 12.78125 -3.4375 C 12.28125 -2.21875 11.550781 -1.3125 10.59375 -0.71875 C 9.632812 -0.125 8.484375 0.171875 7.140625 0.171875 C 5.097656 0.171875 3.519531 -0.398438 2.40625 -1.546875 C 1.300781 -2.703125 0.75 -4.316406 0.75 -6.390625 C 0.75 -8.460938 1.285156 -10.054688 2.359375 -11.171875 C 3.429688 -12.285156 4.984375 -12.84375 7.015625 -12.84375 C 8.503906 -12.84375 9.710938 -12.539062 10.640625 -11.9375 C 11.578125 -11.34375 12.234375 -10.472656 12.609375 -9.328125 L 10.28125 -8.6875 C 10.082031 -9.320312 9.691406 -9.820312 9.109375 -10.1875 C 8.535156 -10.5625 7.859375 -10.75 7.078125 -10.75 C 5.878906 -10.75 4.96875 -10.378906 4.34375 -9.640625 C 3.726562 -8.898438 3.421875 -7.816406 3.421875 -6.390625 C 3.421875 -4.929688 3.738281 -3.816406 4.375 -3.046875 C 5.007812 -2.285156 5.929688 -1.90625 7.140625 -1.90625 Z M 7.140625 -1.90625 "/></g></g></g><g fill="#2dcddf" fill-opacity="1"><g transform="translate(184.50099, 313.874775)"><g><path d="M 1.234375 0 L 1.234375 -12.65625 L 11.1875 -12.65625 L 11.1875 -10.609375 L 3.875 -10.609375 L 3.875 -7.421875 L 10.625 -7.421875 L 10.625 -5.375 L 3.875 -5.375 L 3.875 -2.046875 L 11.546875 -2.046875 L 11.546875 0 Z M 1.234375 0 "/></g></g></g></svg>